<svg version="1.1" id="Layer_1" xmlns="http://www.w3.org/2000/svg" xmlns:xlink="http://www.w3.org/1999/xlink" x="0px" y="0px"
	 width="100%" viewBox="0 0 1024 1024" enable-background="new 0 0 1024 1024" xml:space="preserve">
<path fill="#FEFEFE" opacity="1.000000" stroke="none" 
	d="
M603.000000,1025.000000 
	C402.000000,1025.000000 201.500000,1025.000000 1.000000,1025.000000 
	C1.000000,683.666687 1.000000,342.333344 1.000000,1.000000 
	C342.333344,1.000000 683.666687,1.000000 1025.000000,1.000000 
	C1025.000000,342.333344 1025.000000,683.666687 1025.000000,1025.000000 
	C884.500000,1025.000000 744.000000,1025.000000 603.000000,1025.000000 
M690.500061,33.522202 
	C494.523956,33.522266 298.547852,33.521652 102.571732,33.527847 
	C99.072868,33.527958 95.573166,33.574909 92.075287,33.659473 
	C77.617996,34.008999 65.138748,39.505360 54.490440,48.958427 
	C39.655289,62.128368 33.470238,78.744690 33.485229,98.697235 
	C33.692448,374.496185 33.624805,650.295349 33.631306,926.094482 
	C33.631367,928.760010 33.689388,931.426697 33.778263,934.090881 
	C34.278858,949.097168 40.150928,961.905945 50.329716,972.662659 
	C63.432949,986.509766 79.737404,992.208923 98.791527,992.199158 
	C374.757202,992.058411 650.723022,992.102966 926.688782,992.100830 
	C928.688416,992.100769 930.689331,992.110779 932.687378,992.045593 
	C945.017822,991.643921 956.268005,987.884399 966.138062,980.531738 
	C984.124390,967.133118 992.221130,949.129211 992.209595,926.650085 
	C992.067749,650.851013 992.117432,375.051910 992.114136,99.252777 
	C992.114075,97.253342 992.099121,95.252930 992.037598,93.254623 
	C991.641479,80.380737 987.606018,68.700249 979.812012,58.510857 
	C966.670105,41.329987 949.197510,33.376045 927.470581,33.436890 
	C848.814270,33.657166 770.157043,33.522369 690.500061,33.522202 
z"/>
<path fill="#73657D" opacity="1.000000" stroke="none" 
	d="
M691.000122,33.521889 
	C770.157043,33.522369 848.814270,33.657166 927.470581,33.436890 
	C949.197510,33.376045 966.670105,41.329987 979.812012,58.510857 
	C987.606018,68.700249 991.641479,80.380737 992.037598,93.254623 
	C992.099121,95.252930 992.114075,97.253342 992.114136,99.252777 
	C992.117432,375.051910 992.067749,650.851013 992.209595,926.650085 
	C992.221130,949.129211 984.124390,967.133118 966.138062,980.531738 
	C956.268005,987.884399 945.017822,991.643921 932.687378,992.045593 
	C930.689331,992.110779 928.688416,992.100769 926.688782,992.100830 
	C650.723022,992.102966 374.757202,992.058411 98.791527,992.199158 
	C79.737404,992.208923 63.432949,986.509766 50.329716,972.662659 
	C40.150928,961.905945 34.278858,949.097168 33.778263,934.090881 
	C33.689388,931.426697 33.631367,928.760010 33.631306,926.094482 
	C33.624805,650.295349 33.692448,374.496185 33.485229,98.697235 
	C33.470238,78.744690 39.655289,62.128368 54.490440,48.958427 
	C65.138748,39.505360 77.617996,34.008999 92.075287,33.659473 
	C95.573166,33.574909 99.072868,33.527958 102.571732,33.527847 
	C298.547852,33.521652 494.523956,33.522266 691.000122,33.521889 
M501.300415,580.781311 
	C507.666809,563.407898 510.574524,545.326660 510.877777,526.964844 
	C511.367462,497.310486 511.189819,467.643402 511.115143,437.982147 
	C511.072205,420.927979 509.113831,404.074951 503.899139,387.766754 
	C491.561768,349.183716 466.868591,322.797241 427.252045,311.947723 
	C393.007355,302.569397 359.601257,306.373688 327.294495,320.462463 
	C316.655182,325.102203 306.395996,330.613617 294.902649,336.246094 
	C294.092865,335.139771 293.178833,333.499054 291.906647,332.212433 
	C275.496735,315.616577 256.664246,313.069611 236.647461,325.079010 
	C218.061768,336.229767 210.208511,360.829254 225.152863,378.113617 
	C228.671738,382.183472 230.882401,387.979523 232.048889,393.339661 
	C233.553650,400.254303 233.885254,407.528687 233.892517,414.648987 
	C233.998230,518.299377 233.964325,621.950012 233.966690,725.600525 
	C233.966873,734.099121 233.766541,742.605225 234.053055,751.094543 
	C234.463104,763.243347 239.365173,773.294434 249.118271,780.761719 
	C259.937653,789.045349 272.493927,790.862305 285.567444,789.917542 
	C311.087921,788.073242 326.004456,771.932434 326.017548,746.492920 
	C326.034882,712.831482 326.018616,679.170044 326.032440,645.508606 
	C326.033173,643.781067 326.180725,642.053528 326.251007,640.520813 
	C335.736145,643.755920 344.662689,647.586365 353.972534,649.817139 
	C375.365631,654.943298 397.001404,653.830505 418.434845,649.886658 
	C458.593994,642.497375 486.958099,620.558594 501.300415,580.781311 
M774.421265,644.946289 
	C777.256165,643.987122 780.138977,643.148987 782.917664,642.048096 
	C795.104004,637.219788 806.384155,631.147583 814.910706,620.676758 
	C833.106628,598.331604 822.066406,567.881226 793.841553,562.848999 
	C779.596130,560.309143 766.107544,562.331055 753.040588,568.518494 
	C739.100708,575.119324 724.356323,577.693970 708.896423,576.934753 
	C681.277100,575.578247 664.889648,560.472900 663.972168,532.877075 
	C662.959717,502.421570 663.401550,471.916534 663.305603,441.432770 
	C663.288879,436.116394 663.543030,430.780273 664.019653,425.484558 
	C665.701843,406.796509 676.524170,393.386200 694.016479,388.448181 
	C704.573303,385.468018 715.533630,384.500305 726.173096,386.728973 
	C737.005066,388.997986 747.619324,392.600800 758.059998,396.365540 
	C770.126282,400.716431 782.290771,402.027161 794.875610,399.940918 
	C810.466370,397.356415 821.198792,387.457123 822.845581,373.488190 
	C824.765198,357.205322 819.331848,343.672577 806.462036,333.322540 
	C795.462585,324.476776 782.602600,319.432861 769.138489,316.067932 
	C741.759949,309.225403 713.936340,307.328094 685.868469,310.253448 
	C667.212280,312.197815 649.158997,316.609772 632.465576,325.516846 
	C590.330200,347.998871 572.654358,385.055908 571.266968,430.900177 
	C570.330017,461.861572 570.892212,492.878845 571.294434,523.864502 
	C571.436340,534.800476 572.185547,545.889526 574.226624,556.609985 
	C580.610718,590.141968 597.525513,616.904846 627.454407,634.403503 
	C645.392029,644.891357 665.010925,650.357422 685.633179,652.440796 
	C715.427124,655.450684 744.780212,653.313904 774.421265,644.946289 
z"/>
<path fill="#FFF5E6" opacity="1.000000" stroke="none" 
	d="
M501.179749,581.154663 
	C486.958099,620.558594 458.593994,642.497375 418.434845,649.886658 
	C397.001404,653.830505 375.365631,654.943298 353.972534,649.817139 
	C344.662689,647.586365 335.736145,643.755920 326.251007,640.520813 
	C326.180725,642.053528 326.033173,643.781067 326.032440,645.508606 
	C326.018616,679.170044 326.034882,712.831482 326.017548,746.492920 
	C326.004456,771.932434 311.087921,788.073242 285.567444,789.917542 
	C272.493927,790.862305 259.937653,789.045349 249.118271,780.761719 
	C239.365173,773.294434 234.463104,763.243347 234.053055,751.094543 
	C233.766541,742.605225 233.966873,734.099121 233.966690,725.600525 
	C233.964325,621.950012 233.998230,518.299377 233.892517,414.648987 
	C233.885254,407.528687 233.553650,400.254303 232.048889,393.339661 
	C230.882401,387.979523 228.671738,382.183472 225.152863,378.113617 
	C210.208511,360.829254 218.061768,336.229767 236.647461,325.079010 
	C256.664246,313.069611 275.496735,315.616577 291.906647,332.212433 
	C293.178833,333.499054 294.092865,335.139771 294.902649,336.246094 
	C306.395996,330.613617 316.655182,325.102203 327.294495,320.462463 
	C359.601257,306.373688 393.007355,302.569397 427.252045,311.947723 
	C466.868591,322.797241 491.561768,349.183716 503.899139,387.766754 
	C509.113831,404.074951 511.072205,420.927979 511.115143,437.982147 
	C511.189819,467.643402 511.367462,497.310486 510.877777,526.964844 
	C510.574524,545.326660 507.666809,563.407898 501.179749,581.154663 
M349.392731,574.140198 
	C359.139526,575.061584 368.900360,576.869690 378.630127,576.715637 
	C397.584808,576.415588 409.716400,567.199951 414.875305,548.980225 
	C417.425751,539.972839 418.735718,530.357788 418.918793,520.984741 
	C419.458801,493.342133 419.497101,465.676819 418.991089,438.033905 
	C418.822906,428.846863 417.452362,419.386047 414.798065,410.604553 
	C409.940857,394.535095 397.155060,385.750580 380.527588,384.798096 
	C363.405334,383.817322 347.695770,389.037231 332.170288,395.240814 
	C324.893402,398.148499 324.966766,398.186249 325.782349,406.170990 
	C326.052307,408.814026 326.010742,411.494843 326.012390,414.158417 
	C326.027802,438.979370 326.021637,463.800293 326.021667,488.621246 
	C326.021698,513.275635 326.172638,537.931763 325.887451,562.582825 
	C325.833862,567.213440 327.331207,569.033875 331.602264,569.876221 
	C337.301941,571.000488 342.904266,572.618591 349.392731,574.140198 
z"/>
<path fill="#FFF5E6" opacity="1.000000" stroke="none" 
	d="
M774.029663,645.039307 
	C744.780212,653.313904 715.427124,655.450684 685.633179,652.440796 
	C665.010925,650.357422 645.392029,644.891357 627.454407,634.403503 
	C597.525513,616.904846 580.610718,590.141968 574.226624,556.609985 
	C572.185547,545.889526 571.436340,534.800476 571.294434,523.864502 
	C570.892212,492.878845 570.330017,461.861572 571.266968,430.900177 
	C572.654358,385.055908 590.330200,347.998871 632.465576,325.516846 
	C649.158997,316.609772 667.212280,312.197815 685.868469,310.253448 
	C713.936340,307.328094 741.759949,309.225403 769.138489,316.067932 
	C782.602600,319.432861 795.462585,324.476776 806.462036,333.322540 
	C819.331848,343.672577 824.765198,357.205322 822.845581,373.488190 
	C821.198792,387.457123 810.466370,397.356415 794.875610,399.940918 
	C782.290771,402.027161 770.126282,400.716431 758.059998,396.365540 
	C747.619324,392.600800 737.005066,388.997986 726.173096,386.728973 
	C715.533630,384.500305 704.573303,385.468018 694.016479,388.448181 
	C676.524170,393.386200 665.701843,406.796509 664.019653,425.484558 
	C663.543030,430.780273 663.288879,436.116394 663.305603,441.432770 
	C663.401550,471.916534 662.959717,502.421570 663.972168,532.877075 
	C664.889648,560.472900 681.277100,575.578247 708.896423,576.934753 
	C724.356323,577.693970 739.100708,575.119324 753.040588,568.518494 
	C766.107544,562.331055 779.596130,560.309143 793.841553,562.848999 
	C822.066406,567.881226 833.106628,598.331604 814.910706,620.676758 
	C806.384155,631.147583 795.104004,637.219788 782.917664,642.048096 
	C780.138977,643.148987 777.256165,643.987122 774.029663,645.039307 
z"/>
<path fill="#73657D" opacity="1.000000" stroke="none" 
	d="
M348.970581,574.082397 
	C342.904266,572.618591 337.301941,571.000488 331.602264,569.876221 
	C327.331207,569.033875 325.833862,567.213440 325.887451,562.582825 
	C326.172638,537.931763 326.021698,513.275635 326.021667,488.621246 
	C326.021637,463.800293 326.027802,438.979370 326.012390,414.158417 
	C326.010742,411.494843 326.052307,408.814026 325.782349,406.170990 
	C324.966766,398.186249 324.893402,398.148499 332.170288,395.240814 
	C347.695770,389.037231 363.405334,383.817322 380.527588,384.798096 
	C397.155060,385.750580 409.940857,394.535095 414.798065,410.604553 
	C417.452362,419.386047 418.822906,428.846863 418.991089,438.033905 
	C419.497101,465.676819 419.458801,493.342133 418.918793,520.984741 
	C418.735718,530.357788 417.425751,539.972839 414.875305,548.980225 
	C409.716400,567.199951 397.584808,576.415588 378.630127,576.715637 
	C368.900360,576.869690 359.139526,575.061584 348.970581,574.082397 
z"/>
</svg>